# xmcd
#
# Track frame offsets: 
#        150
#        26620
#        49642
#        79427
#        103327
#        123642
#        154575
#        177712
#        199235
#        220790
#        242737
#        264502
#
# Disc length: 3972 seconds
#
# Revision: 0
# Processed by: cddbd v1.5.2PL0 Copyright (c) Steve Scherf et al.
# Submitted via: ExactAudioCopyFreeDBPlugin 1.0
#
DISCID=af0f820c
DTITLE=Calloway - All The Way (RE)
DYEAR=1989
DGENRE=Funk
TTITLE0=Sir Lancelot
TTITLE1=I Wanna Be Rich
TTITLE2=Love Circle
TTITLE3=Freaks Compete
TTITLE4=You Are My Everything
TTITLE5=All The Way
TTITLE6=I Want You
TTITLE7=Sugar Free
TTITLE8=You Can Count On Me
TTITLE9=Holiday
TTITLE10=I Wanna Be Rich (7'' Version)
TTITLE11=I Wanna Be Rich (Extended Mix)
EXTD=
EXTT0=
EXTT1=
EXTT2=
EXTT3=
EXTT4=
EXTT5=
EXTT6=
EXTT7=
EXTT8=
EXTT9=
EXTT10=
EXTT11=
PLAYORDER=
